# xmcd
#
# Track frame offsets: 
#        150
#        15479
#        27501
#        43115
#        55057
#        67957
#        81491
#        97579
#        113351
#        124634
#        137189
#        152259
#        166884
#        183858
#        196879
#        208567
#
# Disc length: 2953 seconds
#
# Revision: 0
# Processed by: cddbd v1.5.2PL0 Copyright (c) Steve Scherf et al.
# Submitted via: ExactAudioCopy v0.95b4
#
DISCID=c00b8710
DTITLE=DAVID FRIZZELL AND SHELLY WEST - THE VERY BEST OF DAVID FRIZZEL
DTITLE=L AND SHELLY WEST
DYEAR=1989
DGENRE=COUNTRY
TTITLE0=YOU'RE THE REASON GOD MADE OKLAHOMA
TTITLE1=A TEXAS STATE OF MIND
TTITLE2=CARRYIN' ON THE FAMILY NAMES
TTITLE3=HUSBANDS AND WIVES
TTITLE4=ANOTHER HONKY TONK NIGHT ON BROADWAY
TTITLE5=OUR DAY WILL COME
TTITLE6=I JUST CAME HERE TO DANCE
TTITLE7=PLEASE SURRENDER
TTITLE8=YOU'LL ALWAYS BE SPECIAL TO ME
TTITLE9=CAJUN INVITATION
TTITLE10=PLEASURE ISLAND
TTITLE11=SILENT PARTNERS
TTITLE12=Medley-The Wild Side Of Life-It Wasnt God Who Made Honky Tonk
TTITLE12=Angels
TTITLE13=I JUST FALL IN LOVE AGAIN
TTITLE14=DO ME RIGHT
TTITLE15=IT'S A BE TOGETHER NIGHT
EXTD=
EXTT0=
EXTT1=
EXTT2=
EXTT3=
EXTT4=
EXTT5=
EXTT6=
EXTT7=
EXTT8=
EXTT9=
EXTT10=
EXTT11=
EXTT12=
EXTT13=
EXTT14=
EXTT15=
PLAYORDER=
